<?xml version="1.0" encoding="UTF-8" standalone="no"?><svg xmlns="http://www.w3.org/2000/svg" xmlns:xlink="http://www.w3.org/1999/xlink" contentStyleType="text/css" height="858px" preserveAspectRatio="none" style="width:388px;height:858px;background:#FFFFFF;" version="1.1" viewBox="0 0 388 858" width="388px" zoomAndPan="magnify"><defs/><g><!--MD5=[b4b32f7a690d45f8273dd290d88b8cfb]
cluster Sistema de Livraria--><g id="cluster_Sistema de Livraria"><rect fill="none" height="602" rx="2.5" ry="2.5" style="stroke:#181818;stroke-width:1.0;" width="280" x="102" y="7"/><text fill="#000000" font-family="sans-serif" font-size="14" font-weight="bold" lengthAdjust="spacing" textLength="150" x="167" y="21.9951">Sistema de Livraria</text></g><!--MD5=[da0cc52003e83f0d614cc4ab23641ff5]
cluster Admin--><g id="cluster_Admin"><rect fill="none" height="219" rx="2.5" ry="2.5" style="stroke:#181818;stroke-width:1.0;" width="176" x="154" y="633"/><text fill="#000000" font-family="sans-serif" font-size="14" font-weight="bold" lengthAdjust="spacing" textLength="49" x="217.5" y="647.9951">Admin</text></g><g id="elem_Registro"><ellipse cx="241.8472" cy="57.2215" fill="#F1F1F1" rx="53.3472" ry="14.7215" style="stroke:#181818;stroke-width:0.5;"/><text fill="#000000" font-family="sans-serif" font-size="14" lengthAdjust="spacing" textLength="58" x="209.8472" y="60.969">Registro</text></g><g id="elem_Login"><ellipse cx="242.2231" cy="121.0485" fill="#F1F1F1" rx="37.7231" ry="14.5485" style="stroke:#181818;stroke-width:0.5;"/><text fill="#000000" font-family="sans-serif" font-size="14" lengthAdjust="spacing" textLength="37" x="222.1116" y="124.4312">Login</text></g><g id="elem_Pesquisar Livros"><ellipse cx="241.9563" cy="188.7913" fill="#F1F1F1" rx="76.9563" ry="17.7913" style="stroke:#181818;stroke-width:0.5;"/><text fill="#000000" font-family="sans-serif" font-size="14" lengthAdjust="spacing" textLength="111" x="183.5675" y="192.5101">Pesquisar Livros</text></g><g id="elem_Visualizar Detalhes do Livro"><ellipse cx="242.0183" cy="267.0037" fill="#F1F1F1" rx="110.5183" ry="24.5037" style="stroke:#181818;stroke-width:0.5;"/><text fill="#000000" font-family="sans-serif" font-size="14" lengthAdjust="spacing" textLength="187" x="148.5183" y="269.8503">Visualizar Detalhes do Livro</text></g><g id="elem_Finalizar Compra"><ellipse cx="241.7532" cy="344.9506" fill="#F1F1F1" rx="77.7532" ry="17.9506" style="stroke:#181818;stroke-width:0.5;"/><text fill="#000000" font-family="sans-serif" font-size="14" lengthAdjust="spacing" textLength="113" x="182.6994" y="348.5809">Finalizar Compra</text></g><g id="elem_Visualizar Histórico de Compras"><ellipse cx="242.0617" cy="425.2123" fill="#F1F1F1" rx="124.0617" ry="27.2123" style="stroke:#181818;stroke-width:0.5;"/><text fill="#000000" font-family="sans-serif" font-size="14" lengthAdjust="spacing" textLength="216" x="134.0617" y="428.059">Visualizar Histórico de Compras</text></g><g id="elem_Avaliar Livro"><ellipse cx="242.2353" cy="502.8471" fill="#F1F1F1" rx="64.7353" ry="15.3471" style="stroke:#181818;stroke-width:0.5;"/><text fill="#000000" font-family="sans-serif" font-size="14" lengthAdjust="spacing" textLength="78" x="200.2353" y="506.5946">Avaliar Livro</text></g><g id="elem_Comentar em Livro"><ellipse cx="241.9263" cy="572.7853" fill="#F1F1F1" rx="84.4263" ry="19.2853" style="stroke:#181818;stroke-width:0.5;"/><text fill="#000000" font-family="sans-serif" font-size="14" lengthAdjust="spacing" textLength="129" x="177.305" y="575.6739">Comentar em Livro</text></g><g id="elem_Adicionar Livro"><ellipse cx="241.9293" cy="684.7859" fill="#F1F1F1" rx="71.9293" ry="16.7859" style="stroke:#181818;stroke-width:0.5;"/><text fill="#000000" font-family="sans-serif" font-size="14" lengthAdjust="spacing" textLength="98" x="189.9293" y="688.5334">Adicionar Livro</text></g><g id="elem_Editar Livro"><ellipse cx="241.8925" cy="752.0785" fill="#F1F1F1" rx="63.3925" ry="15.0785" style="stroke:#181818;stroke-width:0.5;"/><text fill="#000000" font-family="sans-serif" font-size="14" lengthAdjust="spacing" textLength="74" x="201.8925" y="755.8261">Editar Livro</text></g><g id="elem_Remover Livro"><ellipse cx="242.0529" cy="819.2106" fill="#F1F1F1" rx="71.5529" ry="16.7106" style="stroke:#181818;stroke-width:0.5;"/><text fill="#000000" font-family="sans-serif" font-size="14" lengthAdjust="spacing" textLength="97" x="190.5529" y="822.9581">Remover Livro</text></g><!--MD5=[ee0fec323975fbe97ba28321ad4c4bf3]
entity U--><g id="elem_U"><ellipse cx="32" cy="395.5" fill="#F1F1F1" rx="8" ry="8" style="stroke:#181818;stroke-width:0.5;"/><path d="M32,403.5 L32,430.5 M19,411.5 L45,411.5 M32,430.5 L19,445.5 M32,430.5 L45,445.5 " fill="none" style="stroke:#181818;stroke-width:0.5;"/><text fill="#000000" font-family="sans-serif" font-size="14" lengthAdjust="spacing" textLength="52" x="6" y="459.9951">Usuario</text></g><!--MD5=[8eee0ac345432e4bb2222468d4b23d3d]
link U to Registro--><g id="link_U_Registro"><path d="M34.73,386.98 C39.1,308.23 53.33,131.11 94,89 C116.9,65.29 152.94,57.18 183.61,55.05 " fill="none" id="U-to-Registro" style="stroke:#181818;stroke-width:1.0;"/><polygon fill="#181818" points="188.87,54.74,179.646,51.2878,183.879,55.0403,180.1265,59.2733,188.87,54.74" style="stroke:#181818;stroke-width:1.0;"/></g><!--MD5=[903f0bf9022a7e71a4ec05895cf9da87]
link U to Login--><g id="link_U_Login"><path d="M36.54,386.81 C43.54,319.89 61.35,185.45 94,153 C121.52,125.65 166.6,119.27 199.6,118.73 " fill="none" id="U-to-Login" style="stroke:#181818;stroke-width:1.0;"/><polygon fill="#181818" points="204.78,118.69,195.746,114.7673,199.7802,118.7329,195.8146,122.767,204.78,118.69" style="stroke:#181818;stroke-width:1.0;"/></g><!--MD5=[146a93d657f61c6ffb1aaeea23c38efb]
link U to Pesquisar Livros--><g id="link_U_Pesquisar Livros"><path d="M33.85,386.81 C36.97,341.68 49.16,267.4 94,225 C112.09,207.89 136.93,198.52 161.04,193.49 " fill="none" id="U-to-Pesquisar Livros" style="stroke:#181818;stroke-width:1.0;"/><polygon fill="#181818" points="166.17,192.49,156.5713,190.2844,161.2622,193.4459,158.1007,198.1368,166.17,192.49" style="stroke:#181818;stroke-width:1.0;"/></g><!--MD5=[7f08edc36c2ffe4e4d94c509f5881a5c]
link U to Visualizar Detalhes do Livro--><g id="link_U_Visualizar Detalhes do Livro"><path d="M44.2,386.96 C53.58,361.43 69.46,328.95 94,309 C108.68,297.06 126.59,288.52 144.79,282.4 " fill="none" id="U-to-Visualizar Detalhes do Livro" style="stroke:#181818;stroke-width:1.0;"/><polygon fill="#181818" points="149.93,280.74,140.135,279.7117,145.1739,282.2825,142.603,287.3214,149.93,280.74" style="stroke:#181818;stroke-width:1.0;"/></g><!--MD5=[70245beafc72613e5c21ad96a7e8ff63]
link U to Finalizar Compra--><g id="link_U_Finalizar Compra"><path d="M58.25,402.81 C68.71,394.6 81.35,385.87 94,380 C117.98,368.87 145.86,361.07 170.86,355.72 " fill="none" id="U-to-Finalizar Compra" style="stroke:#181818;stroke-width:1.0;"/><polygon fill="#181818" points="175.82,354.68,166.1902,352.6142,170.9266,355.7072,167.8337,360.4436,175.82,354.68" style="stroke:#181818;stroke-width:1.0;"/></g><!--MD5=[c85455649383aff107559cc3e8678c02]
link U to Visualizar Histórico de Compras--><g id="link_U_Visualizar Histórico de Compras"><path d="M58.09,425 C72.59,425 92.07,425 112.9,425 " fill="none" id="U-to-Visualizar Histórico de Compras" style="stroke:#181818;stroke-width:1.0;"/><polygon fill="#181818" points="117.94,425,108.94,421,112.94,425,108.94,429,117.94,425" style="stroke:#181818;stroke-width:1.0;"/></g><!--MD5=[fb4e93afa23613e93a274cdda67177c8]
link U to Avaliar Livro--><g id="link_U_Avaliar Livro"><path d="M58.01,446.5 C68.53,454.59 81.28,463.23 94,469 C121.06,481.28 153,489.35 180.19,494.54 " fill="none" id="U-to-Avaliar Livro" style="stroke:#181818;stroke-width:1.0;"/><polygon fill="#181818" points="185.2,495.47,177.0835,489.8913,180.2843,494.5555,175.6202,497.7563,185.2,495.47" style="stroke:#181818;stroke-width:1.0;"/></g><!--MD5=[34b18c0e19fe327cf1c2f7cbf956f254]
link U to Comentar em Livro--><g id="link_U_Comentar em Livro"><path d="M45.04,463.26 C54.59,487.54 70.33,517.73 94,536 C112.5,550.28 135.84,559.1 158.45,564.54 " fill="none" id="U-to-Comentar em Livro" style="stroke:#181818;stroke-width:1.0;"/><polygon fill="#181818" points="163.57,565.72,155.705,559.792,158.699,564.5915,153.8994,567.5855,163.57,565.72" style="stroke:#181818;stroke-width:1.0;"/></g><!--MD5=[9a7997627286f5abbaf133be8e56f07b]
link U to Adicionar Livro--><g id="link_U_Adicionar Livro"><path d="M37.14,463.32 C43.29,503.71 58.26,567.16 94,609 C119.33,638.65 159.12,658.23 190.93,670.07 " fill="none" id="U-to-Adicionar Livro" style="stroke:#181818;stroke-width:1.0;"/><polygon fill="#181818" points="195.96,671.91,188.8755,665.0682,191.2627,670.1967,186.1342,672.5839,195.96,671.91" style="stroke:#181818;stroke-width:1.0;"/></g><!--MD5=[7a42d725a520dd0e785f05676b8f0c7c]
link U to Editar Livro--><g id="link_U_Editar Livro"><path d="M35.85,463.14 C41.96,534.25 58.72,683.14 94,719 C114.55,739.89 145.27,748.81 173.31,752.25 " fill="none" id="U-to-Editar Livro" style="stroke:#181818;stroke-width:1.0;"/><polygon fill="#181818" points="178.52,752.83,170.0215,747.8525,173.5511,752.2731,169.1305,755.8028,178.52,752.83" style="stroke:#181818;stroke-width:1.0;"/></g><!--MD5=[19394ef350f96b4d003e4c032a37fd08]
link U to Remover Livro--><g id="link_U_Remover Livro"><path d="M34.3,463.02 C37.93,545.66 50.89,737.97 94,784 C112.24,803.48 139.2,813 165.06,817.41 " fill="none" id="U-to-Remover Livro" style="stroke:#181818;stroke-width:1.0;"/><polygon fill="#181818" points="170.21,818.22,161.9496,812.8567,165.272,817.4351,160.6936,820.7575,170.21,818.22" style="stroke:#181818;stroke-width:1.0;"/></g><!--MD5=[4423426ff903451f5241f6536a7683a5]
@startuml
left to right direction

actor Usuario as U

rectangle "Sistema de Livraria" {
  U - -> (Registro)
  U - -> (Login)
  U - -> (Pesquisar Livros)
  U - -> (Visualizar Detalhes do Livro)
  U - -> (Finalizar Compra)
  U - -> (Visualizar Histórico de Compras)
  U - -> (Avaliar Livro)
  U - -> (Comentar em Livro)
}

rectangle "Admin" {
  U - -> (Adicionar Livro)
  U - -> (Editar Livro)
  U - -> (Remover Livro)
}
@enduml

PlantUML version 1.2022.7(Mon Aug 22 17:01:30 UTC 2022)
(GPL source distribution)
Java Runtime: OpenJDK Runtime Environment
JVM: OpenJDK 64-Bit Server VM
Default Encoding: UTF-8
Language: en
Country: null
--></g></svg>
